<svg width="50" height="22" xmlns="http://www.w3.org/2000/svg">

 <g>
  <title>background</title>
  <rect fill="none" id="canvas_background" height="24" width="52" y="-1" x="-1"/>
 </g>
 <g>
  <title>Layer 1</title>
  <g stroke="null" id="svg_1">
   <clipPath transform="translate(20.133331298828125,25.446697235107422) scale(1,1.0992079973220825) translate(-20.133331298828125,-25.446697235107422) " stroke="null" id="cp0"/>
   <g stroke="null" id="svg_2" clip-path="url(#cp0)"/>
  </g>
  <rect stroke="#000000" id="svg_6" height="18.29166" width="47.16664" y="2.05807" x="1.46991" fill-opacity="null" stroke-opacity="null" fill="none"/>
  <ellipse stroke="#000000" ry="4.12499" rx="4.18749" id="svg_7" cy="10.88631" cx="8.11086" fill-opacity="null" stroke-opacity="null" fill="none"/>
  <ellipse ry="1.4375" rx="1.4375" id="svg_8" cy="10.82381" cx="8.11086" fill-opacity="null" stroke-opacity="null" stroke="#000000" fill="none"/>
  <path id="svg_10" d="m2.29838,13.6363" opacity="0.5" fill="#000000"/>
  <path d="m-11.45158,22.63628c0.125,0 0.25951,-0.04784 0.375,0c0.16332,0.06765 0.375,0.5 0.625,0.875c0.25,0.375 0.38004,0.83092 0.75,1.25c0.29827,0.33788 0.66827,0.58818 0.875,0.875c0.16343,0.22675 0.25,0.375 0.375,0.75l0.125,0l0.125,0.125" id="svg_13" fill-opacity="null" stroke-opacity="null" stroke-width="null" stroke="#000000" fill="none"/>
  <ellipse ry="1.125" rx="0.4375" id="svg_14" cy="10.63631" cx="7.98586" fill-opacity="null" stroke-opacity="null" stroke-width="null" stroke="#000000" fill="none"/>
  <ellipse ry="0.3125" rx="0.1875" id="svg_16" cy="10.69881" cx="8.48586" fill-opacity="null" stroke-opacity="null" stroke-width="null" stroke="#000000" fill="none"/>
 </g>
</svg>